<?xml version="1.0" encoding="UTF-8"?>
<svg xmlns="http://www.w3.org/2000/svg" version="1.2" baseProfile="tiny-ps" viewBox="0 0 375 375">
<title>The-Bass.Co</title>
<desc>The logo for The-Bass.Co services.</desc>
<g id="Bkg">
  <rect fill="#2e2c2b" width="375" height="375"/>
</g>
<g id="Logo">
  <g id="bass" fill="#ffffff">
    <path transform="translate(79.8, 221.8)" d="M 32.1 -46.3 C 32.1 -39 22.4 -39 22.4 -39 L 12.5 -39 L 12.5 -54 L 22.4 -54.1 C 22.4 -54.1 32.1 -54.2 32.1 -46.3 Z M 44.7 -47 C 44.7 -66.4 22.4 -65.9 22.4 -65.9 L 0.9 -65.9 C 0.4 -65.9 0 -65.4 0 -65.1 L 0 -26.8 L 22.4 -26.8 C 22.4 -26.8 33 -27.2 33 -19.5 C 33 -13.2 26.5 -12 22.4 -12 L 12.6 -12 L 12.6 0 L 22.4 0 C 26.8 0 45.6 -0.8 45.6 -19.2 C 45.6 -19.2 46 -29.4 35.6 -32.9 C 40.6 -35 44.7 -39.3 44.7 -47 Z M 44.7 -47"/>
    <path transform="translate(136.8, 221.8)" d="M 51.7 -1 L 26.7 -65.4 C 26.4 -66 25.3 -66 25 -65.4 L 0.1 -1 C -0.2 -0.5 0.2 0 0.9 0 L 12.2 0 C 12.5 0 12.9 -0.2 13 -0.5 L 25.8 -37.2 L 38.9 -0.5 C 38.9 -0.2 39.3 0 39.6 0 L 51 0 C 51.5 0 51.9 -0.5 51.7 -1 Z M 51.7 -1"/>
    <path transform="translate(200.2, 221.8)" d="M 30.2 -36.6 C 25.5 -38.8 20.9 -38.8 20.5 -38.8 C 16.3 -38.8 12.3 -41.2 12.3 -46 C 12.3 -51.3 16 -54 20.5 -54 C 24.8 -54 28.4 -51.8 28.6 -47.1 C 28.6 -46.8 29 -46.4 29.5 -46.4 L 39.8 -46.4 C 40.3 -46.4 40.8 -46.8 40.7 -47.1 C 40.5 -58.3 31.8 -65.9 20.5 -65.9 C 10 -65.9 0 -58.4 0 -46 C 0 -38.4 3.9 -32.5 10.7 -29.4 C 15.5 -27.2 19.9 -27.2 20.5 -27.2 C 24.2 -27 28.7 -24 28.7 -19.2 C 28.7 -14.8 24.9 -11.9 20.5 -11.9 C 20.5 -11.9 20.5 -11.9 20.4 -11.9 L 20.4 0 C 20.5 0 20.5 0 20.5 0 C 31 0 40.9 -6.8 40.9 -19.2 C 40.9 -26.9 37.1 -33.3 30.2 -36.6 Z M 30.2 -36.6"/>
    <path transform="translate(252.2, 221.8)" d="M 30.2 -36.6 C 25.5 -38.8 20.9 -38.8 20.5 -38.8 C 16.3 -38.8 12.3 -41.2 12.3 -46 C 12.3 -51.3 16 -54 20.5 -54 C 24.8 -54 28.4 -51.8 28.6 -47 C 28.6 -46.8 29 -46.4 29.5 -46.4 L 39.8 -46.4 C 40.3 -46.4 40.8 -46.8 40.7 -47.1 C 40.5 -58.3 31.8 -65.9 20.5 -65.9 C 10 -65.9 0 -58.4 0 -46 C 0 -38.4 3.9 -32.5 10.7 -29.4 C 15.5 -27.2 19.9 -27.2 20.5 -27.2 C 24.2 -27 28.7 -24 28.7 -19.2 C 28.7 -14.8 24.9 -11.9 20.5 -11.9 C 20.5 -11.9 20.5 -11.9 20.4 -11.9 L 20.4 0 C 20.5 0 20.5 0 20.5 0 C 31 0 40.9 -6.8 40.9 -19.2 C 40.9 -26.9 37.1 -33.3 30.2 -36.6 Z M 30.2 -36.6"/>
  </g>
  <g id="Border" stroke="#ffffff" stroke-width="10">
    <path transform="matrix(-1.2, 0, 0, -1.2, 324.5, 140.7)" d="M 0 5 L 84.4 5"/>
    <path transform="matrix(0, -1.2, 1.2, 0, 312.7, 229.4)" d="M -0 5 L 83.8 5"/>
    <path transform="matrix(1.2, 0, 0, 1.2, 48.3, 239.6)" d="M -0 5 L 84.4 5"/>
    <path transform="matrix(0, 1.2, -1.2, 0, 60, 150.9)" d="M -0 5 L 83.8 5"/>
  </g>
  <g id="the-" fill="#ffffff">
    <path transform="translate(79.4, 152.5)" d="M 3.6 -11.1 L 3.6 -0.2 C 3.6 -0.1 3.7 0 3.8 0 L 6.6 0 C 6.8 0 6.9 -0.1 6.9 -0.2 L 6.9 -11.1 Z M 0.2 -14.4 L 10.2 -14.4 C 10.3 -14.4 10.4 -14.5 10.4 -14.6 L 10.4 -17.1 C 10.4 -17.2 10.3 -17.3 10.2 -17.3 L 0.2 -17.3 C 0.1 -17.3 0 -17.2 0 -17.1 L 0 -14.6 C 0 -14.5 0.1 -14.4 0.2 -14.4 Z M 0.2 -14.4"/>
    <path transform="translate(92.7, 152.5)" d="M 3.3 -9.8 L 3.3 -17.1 C 3.3 -17.2 3.2 -17.3 3.1 -17.3 L 0.2 -17.3 C 0.1 -17.3 0 -17.2 0 -17.1 L 0 -9.8 Z M 13 -17.3 L 10.1 -17.3 C 10 -17.3 9.9 -17.2 9.9 -17.1 L 9.9 -6.5 L 3.3 -6.5 L 3.3 -6.5 L 0 -6.5 L 0 -0.2 C 0 -0.1 0.1 0 0.2 0 L 3.1 0 C 3.2 0 3.3 -0.1 3.3 -0.2 L 3.3 -3.3 L 9.9 -3.3 L 9.9 -0.2 C 9.9 -0.1 10 0 10.1 0 L 13 0 C 13.1 0 13.2 -0.1 13.2 -0.2 L 13.2 -17.1 C 13.2 -17.2 13.1 -17.3 13 -17.3 Z M 13 -17.3"/>
    <path transform="translate(109, 152.5)" d="M 8.2 -3.2 L 3.3 -3.2 L 3.3 -7.1 L 10.1 -7.1 C 10.3 -7.1 10.4 -7.2 10.4 -7.3 L 10.4 -10.1 C 10.4 -10.2 10.3 -10.3 10.1 -10.3 L 3.3 -10.3 L 3.3 -14.2 L 8.2 -14.2 L 8.2 -17.3 L 0.2 -17.3 C 0.1 -17.3 0 -17.2 0 -17.1 L 0 -0.2 C 0 -0.1 0.1 0 0.2 0 L 8.2 0 Z M 8.2 -3.2"/>
    <path transform="translate(122.2, 152.5)" d="M 10.6 -12.1 C 10.6 -12.2 10.5 -12.3 10.4 -12.3 L 2.6 -12.3 C 2.4 -12.3 2.4 -12.2 2.4 -12.1 L 2.4 -9.8 C 2.4 -9.7 2.4 -9.6 2.6 -9.6 L 10.4 -9.6 C 10.5 -9.6 10.6 -9.7 10.6 -9.8 Z M 10.6 -12.1"/>
  </g>
  <g id= "dot-co" fill="#ffffff">
    <path transform="translate(255.2, 243.6)" d="M 3.1 -1.5 C 3.1 -2.3 2.4 -3.1 1.5 -3.1 C 0.7 -3.1 0 -2.3 0 -1.5 C 0 -0.7 0.7 0 1.5 0 C 2.4 0 3.1 -0.7 3.1 -1.5 Z M 3.1 -1.5"/>
    <path transform="translate(260.8, 243.6)" d="M 9.9 -3.2 C 7.8 -3.1 3.3 -3.3 3.3 -8.7 C 3.3 -12.8 6.1 -14.4 9.9 -14.2 L 9.9 -10.3 L 13.2 -10.3 L 13.2 -17.1 C 13.2 -17.2 13.1 -17.3 13 -17.3 L 10.2 -17.3 C 5.9 -17.3 0 -16.4 0 -8.7 C 0 -1.3 5.9 0 10.2 0 L 13 0 C 13.1 0 13.2 -0.1 13.2 -0.2 L 13.2 -3.2 Z M 9.9 -3.2"/>
    <path transform="translate(277.1, 243.6)" d="M 10 -8.6 C 10 -9.5 9.3 -10.3 8.3 -10.3 C 7.4 -10.3 6.7 -9.5 6.7 -8.6 C 6.7 -7.7 7.4 -7 8.3 -7 C 9.3 -7 10 -7.7 10 -8.6 Z M 16.7 -8.7 C 16.7 -13 13.9 -17.3 8.4 -17.3 C 2.8 -17.3 0 -13 0 -8.7 C 0 -4.4 2.8 0 8.4 0 C 13.9 0 16.7 -4.4 16.7 -8.7 Z M 13.4 -8.6 C 13.4 -5.8 11.7 -3 8.4 -3 C 5 -3 3.3 -5.8 3.3 -8.6 C 3.3 -11.5 5 -14.3 8.4 -14.3 C 11.7 -14.3 13.4 -11.5 13.4 -8.6 Z M 13.4 -8.6"/>
  </g>
</g>
</svg>
